<?xml version="1.0" encoding="UTF-8" standalone="no" ?>
<!DOCTYPE svg PUBLIC "-//W3C//DTD SVG 1.1//EN" "http://www.w3.org/Graphics/SVG/1.1/DTD/svg11.dtd">
<svg xmlns="http://www.w3.org/2000/svg" xmlns:xlink="http://www.w3.org/1999/xlink" version="1.1" width="640" height="640" viewBox="0 0 640 640" xml:space="preserve">
<desc>Created with Fabric.js 5.3.0</desc>
<defs>
</defs>
<g transform="matrix(0.8344404783 0.3541989687 -3.9824775073 9.3821290575 253.4551444564 334.8925518956)" id="aRen-FWdO394u_9yPB--z"  >
<path style="stroke: rgb(135,145,52); stroke-width: 0; stroke-dasharray: none; stroke-linecap: butt; stroke-dashoffset: 0; stroke-linejoin: miter; stroke-miterlimit: 4; fill: rgb(255,248,220); fill-rule: nonzero; opacity: 1;" vector-effect="non-scaling-stroke"  transform=" translate(0, 0)" d="M -32.03884 -32.03884 L 32.03883 -32.03884 L 32.03883 29.563290000000002 L 32.03883 29.563290000000002 C 32.03883 30.930490000000002 19.577099999999998 32.038830000000004 4.204769999999996 32.038830000000004 L -3.4733300000000034 32.038830000000004 L -3.4733300000000034 32.038830000000004 L -3.4733300000000034 32.038830000000004 C -19.249630000000003 32.038830000000004 -32.03884 30.901370000000004 -32.03884 29.498230000000003 z" stroke-linecap="round" />
</g>
<g transform="matrix(0 0.6501259117 -2.8568533319 0 313.310422017 382.2308374978)" id="YJPjnCXxL2caEZbwHPJ2B"  >
<path style="stroke: rgb(135,145,52); stroke-width: 0; stroke-dasharray: none; stroke-linecap: butt; stroke-dashoffset: 0; stroke-linejoin: miter; stroke-miterlimit: 4; fill: rgb(255,248,220); fill-rule: nonzero; opacity: 1;" vector-effect="non-scaling-stroke"  transform=" translate(0, 0)" d="M -32.03884 -32.03884 L 32.03883 -32.03884 L 32.03883 32.03883 L -32.03884 32.03883 z" stroke-linecap="round" />
</g>
<g transform="matrix(0.9016956831 0 0 8.3059271457 382.8263734704 268.9334266142)" id="1nSFVGV1UwPC68H4CIEAz"  >
<path style="stroke: rgb(135,145,52); stroke-width: 0; stroke-dasharray: none; stroke-linecap: butt; stroke-dashoffset: 0; stroke-linejoin: miter; stroke-miterlimit: 4; fill: rgb(255,248,220); fill-rule: nonzero; opacity: 1;" vector-effect="non-scaling-stroke"  transform=" translate(0, 0)" d="M -32.03884 -28.71992 C -32.03884 -30.552899999999998 -18.35129 -32.03883 -1.4668500000000009 -32.03883 L -1.4668500000000009 -32.03883 L -1.4668500000000009 -32.03883 C 17.03783 -32.03883 32.03883 -30.410309999999996 32.03883 -28.401439999999997 L 32.03883 28.47881 L 32.03883 28.47881 C 32.03883 30.44496 17.35691 32.03883 -0.754170000000002 32.03883 L -1.688130000000002 32.03883 L -1.688130000000002 32.03883 C -18.45037 32.03883 -32.03884 30.56366 -32.03884 28.74394 z" stroke-linecap="round" />
</g>
<g transform="matrix(6.5593426043 0 0 5.7380161774 439.7745902852 152.8797508398)" id="Mlsv-3JH3Qg5HLRS8E2vf"  >
<path style="stroke: none; stroke-width: 1; stroke-dasharray: none; stroke-linecap: butt; stroke-dashoffset: 0; stroke-linejoin: miter; stroke-miterlimit: 4; fill: rgb(255,248,220); fill-rule: nonzero; opacity: 1;" vector-effect="non-scaling-stroke"  transform=" translate(0, 0)" d="M -10.65107 -24.50629 C -9.65107 -24.50629 -10.601890000000001 -23.48436 -9.20189 -23.48436 C -9.20189 -22.48436 -10.340990000000001 -26.084509999999998 -10.24099 -25.48451 C -10.08111 -24.477240000000002 -7.343859999999999 -25.97838 -6.15761 -25.369600000000002 C -4.2819400000000005 -24.407010000000003 -3.36737 -23.534460000000003 -0.8489399999999998 -20.764180000000003 C 8.05106 -10.864180000000003 10.651060000000001 -4.9641800000000025 10.651060000000001 2.935819999999996 C 10.551060000000001 10.335819999999996 4.051060000000001 26.135819999999995 2.651060000000001 25.535819999999998 C 4.651060000000001 19.93582 7.451060000000001 13.935819999999998 8.151060000000001 8.935819999999996 C 9.051060000000001 2.8358199999999965 6.551060000000001 -5.764180000000003 2.5510600000000014 -10.264180000000003 C -0.6489399999999987 -14.064180000000004 -8.24894 -17.364180000000005 -10.348939999999999 -17.364180000000005 C -10.348939999999999 -17.364180000000005 -10.651069999999999 -7.706280000000005 -10.651069999999999 -24.506280000000004 z" stroke-linecap="round" />
</g>
<g transform="matrix(5.0387640328 0 0 5.7380161774 345.283167363 456.8695438475)" id="AHz2aV6g6-Px8wL4Y0sRo"  >
<path style="stroke: none; stroke-width: 1; stroke-dasharray: none; stroke-linecap: butt; stroke-dashoffset: 0; stroke-linejoin: miter; stroke-miterlimit: 4; fill: rgb(255,248,220); fill-rule: nonzero; opacity: 1;" vector-effect="non-scaling-stroke"  transform=" translate(0, 0)" d="M -10.75147 29.3298 C -16.35147 24.229799999999997 -13.25147 16.1298 -4.051469999999999 11.329799999999999 C -0.9514699999999991 9.829799999999999 1.3485300000000011 9.1298 5.348530000000001 9.2298 C 7.848530000000001 9.329799999999999 10.648530000000001 10.7298 10.648530000000001 10.7298 C 10.648530000000001 -7.370200000000002 11.76374 -14.53648 11.76374 -31.33648 C 12.76374 -31.33648 13.54853 2.4298 13.54853 16.229799999999997 C 13.54853 18.529799999999998 11.44853 22.629799999999996 10.248529999999999 24.029799999999998 C 4.748529999999999 30.629799999999996 -5.9514700000000005 33.629799999999996 -10.751470000000001 29.3298 z" stroke-linecap="round" />
</g>
</svg>